<svg xmlns="http://www.w3.org/2000/svg" width="19" height="12" viewBox="0 0 19 12">
  <defs>
    <style>
      .cls-1 {
        fill: #fff;
        fill-rule: evenodd;
      }
    </style>
  </defs>
  <path id="behance" class="cls-1" d="M1478.81,73.424a2.757,2.757,0,0,0,.9-0.665,2.617,2.617,0,0,0,.54-1.724,2.963,2.963,0,0,0-.54-1.786A3.592,3.592,0,0,0,1476.67,68h-5.68V79.7h5.3a8.31,8.31,0,0,0,1.66-.157,3.2,3.2,0,0,0,1.32-.588,3.111,3.111,0,0,0,.83-0.92,3.4,3.4,0,0,0,.53-1.865,3.127,3.127,0,0,0-.46-1.714A2.653,2.653,0,0,0,1478.81,73.424Zm-5.47-3.39h2.55a4.47,4.47,0,0,1,1.39.182,1.051,1.051,0,0,1,.63,1.082,1.1,1.1,0,0,1-.48,1.027,2.365,2.365,0,0,1-1.24.29h-2.85V70.034Zm4.04,7.432a2.764,2.764,0,0,1-1.19.206h-2.85v-3.12h2.89a2.969,2.969,0,0,1,1.17.2,1.257,1.257,0,0,1,.75,1.256A1.481,1.481,0,0,1,1477.38,77.466Zm5.76-8.918h5.03V70h-5.03V68.548Zm6.78,5.748a4.121,4.121,0,0,0-.69-1.789,3.531,3.531,0,0,0-1.5-1.28,4.949,4.949,0,0,0-2.04-.406,4.206,4.206,0,0,0-3.11,1.2,4.671,4.671,0,0,0-1.2,3.45,4.167,4.167,0,0,0,1.33,3.463A4.73,4.73,0,0,0,1485.77,80a4.243,4.243,0,0,0,3.27-1.261,2.82,2.82,0,0,0,.84-1.564h-2.32a1.808,1.808,0,0,1-.47.595,1.916,1.916,0,0,1-1.26.4,2.307,2.307,0,0,1-1.25-.326,2.083,2.083,0,0,1-.91-1.825H1490A11.182,11.182,0,0,0,1489.92,74.3Zm-6.19.224a2.335,2.335,0,0,1,.6-1.339,1.827,1.827,0,0,1,1.36-.5,2.029,2.029,0,0,1,1.35.465,1.891,1.891,0,0,1,.6,1.369h-3.91Z" transform="translate(-1471 -68)"/>
</svg>
