<svg id="logo" xmlns="http://www.w3.org/2000/svg" xmlns:xlink="http://www.w3.org/1999/xlink" width="109.75" height="73.25" viewBox="0 0 109.75 73.25">
  <defs>
    <style>
      .cls-1, .cls-2 {
        fill: #fff;
        fill-rule: evenodd;
      }

      .cls-1 {
        filter: url(#filter);
      }

      .cls-2 {
        filter: url(#filter-2);
      }
    </style>
    <filter id="filter" x="390.469" y="38.75" width="109.75" height="44.25" filterUnits="userSpaceOnUse">
      <feOffset result="offset" dy="2" in="SourceAlpha"/>
      <feGaussianBlur result="blur"/>
      <feFlood result="flood" flood-opacity="0.8"/>
      <feComposite result="composite" operator="in" in2="blur"/>
      <feBlend result="blend" in="SourceGraphic"/>
    </filter>
    <filter id="filter-2" x="409.531" y="81.844" width="52.688" height="30.156" filterUnits="userSpaceOnUse">
      <feOffset result="offset" dy="2" in="SourceAlpha"/>
      <feGaussianBlur result="blur"/>
      <feFlood result="flood" flood-opacity="0.8"/>
      <feComposite result="composite" operator="in" in2="blur"/>
      <feBlend result="blend" in="SourceGraphic"/>
    </filter>
  </defs>
  <path id="juicy" class="cls-1" d="M396.1,80.19a9.68,9.68,0,0,0,7.1-2.527,9.18,9.18,0,0,0,2.568-6.854V49.821h-9.139V70.728a2.947,2.947,0,0,1-.525,1.921,1.71,1.71,0,0,1-1.375.627,4.273,4.273,0,0,1-2.063-.526L390.481,79.1A12.259,12.259,0,0,0,396.1,80.19h0Zm5.1-32.149a5.737,5.737,0,0,0,4-1.355,4.458,4.458,0,0,0,1.5-3.457,4.028,4.028,0,0,0-1.5-3.235,6.035,6.035,0,0,0-4-1.254,5.866,5.866,0,0,0-3.983,1.314,4.427,4.427,0,0,0,0,6.672,5.863,5.863,0,0,0,3.983,1.314h0Zm23.656,1.779V60.214a5.25,5.25,0,0,1-.889,3.377,2.777,2.777,0,0,1-2.225,1.072,2.513,2.513,0,0,1-2.143-.971,5.509,5.509,0,0,1-.728-3.235V49.821h-9.139V62.033q0,5.177,2.548,7.744a9.086,9.086,0,0,0,6.753,2.568,9.43,9.43,0,0,0,3.437-.627,7.835,7.835,0,0,0,2.831-1.88v2.1h8.694V49.821h-9.139Zm13.183,22.12h9.139V49.821h-9.139v22.12Zm4.57-23.9a5.737,5.737,0,0,0,4-1.355,4.458,4.458,0,0,0,1.5-3.457,4.028,4.028,0,0,0-1.5-3.235,6.035,6.035,0,0,0-4-1.254,5.869,5.869,0,0,0-3.984,1.314,4.429,4.429,0,0,0,0,6.672,5.866,5.866,0,0,0,3.984,1.314h0Zm20.5,24.3a13.1,13.1,0,0,0,6.915-1.739,9.017,9.017,0,0,0,3.963-4.812l-7.076-3.478q-1.294,2.912-3.842,2.912a3.545,3.545,0,0,1-2.689-1.132,4.523,4.523,0,0,1-1.072-3.235,4.464,4.464,0,0,1,1.072-3.195,3.547,3.547,0,0,1,2.689-1.132q2.547,0,3.842,2.912l7.076-3.478a9.022,9.022,0,0,0-3.963-4.812,13.108,13.108,0,0,0-6.915-1.739,15.111,15.111,0,0,0-6.733,1.456,11.3,11.3,0,0,0-4.65,4.064,11.333,11.333,0,0,0,0,11.869,11.248,11.248,0,0,0,4.65,4.084,15.111,15.111,0,0,0,6.733,1.456h0Zm28.469-22.524-4.65,11.849-4.57-11.849h-9.382l9.3,22.4a2.829,2.829,0,0,1-2.264.89,4.811,4.811,0,0,1-1.679-.323,5.983,5.983,0,0,1-1.556-.849l-3.033,6.268a8.375,8.375,0,0,0,2.972,1.436,13.359,13.359,0,0,0,3.74.546,11.126,11.126,0,0,0,6.349-1.739,12.785,12.785,0,0,0,4.327-6.066l9.1-22.565h-8.654Z" transform="translate(-390.469 -38.75)"/>
  <path id="st." class="cls-2" d="M419.556,109.345a17.254,17.254,0,0,0,6.267-1.011,8.72,8.72,0,0,0,3.883-2.709A6.064,6.064,0,0,0,431,101.864a5.684,5.684,0,0,0-1.436-4.165,7.4,7.4,0,0,0-3.316-1.981,31.108,31.108,0,0,0-4.59-.849,18.637,18.637,0,0,1-2.547-.425A0.863,0.863,0,0,1,418.3,93.7q0-1.051,2.992-1.051a12.942,12.942,0,0,1,6.39,1.618l2.507-6.025a14.987,14.987,0,0,0-4.1-1.355,25.867,25.867,0,0,0-4.913-.465,16.846,16.846,0,0,0-6.167,1.011,8.723,8.723,0,0,0-3.862,2.709,6.174,6.174,0,0,0-1.294,3.842,5.683,5.683,0,0,0,1.436,4.165,7.223,7.223,0,0,0,3.336,1.961,33.91,33.91,0,0,0,4.61.829,21.411,21.411,0,0,1,2.568.4,0.826,0.826,0,0,1,.788.728,0.852,0.852,0,0,1-.626.789,6.378,6.378,0,0,1-2.2.263,16.8,16.8,0,0,1-4.085-.526,13.106,13.106,0,0,1-3.639-1.456l-2.507,6.025a16,16,0,0,0,4.448,1.578,25.851,25.851,0,0,0,5.581.606h0Zm28.306-7.521a3.575,3.575,0,0,1-2.062.606,1.785,1.785,0,0,1-1.375-.566,2.226,2.226,0,0,1-.526-1.577V94.706h4.529V88.034H443.9V81.847H434.76v6.187h-3.033v6.672h3.033v5.662q0,4.488,2.507,6.733t7.158,2.244a11.4,11.4,0,0,0,5.621-1.173Zm9.017,7.521a5.253,5.253,0,0,0,3.822-1.476,5.046,5.046,0,0,0,1.516-3.781,4.914,4.914,0,0,0-1.516-3.74,5.8,5.8,0,0,0-7.643,0,4.914,4.914,0,0,0-1.517,3.74,5.047,5.047,0,0,0,1.517,3.781,5.251,5.251,0,0,0,3.821,1.476h0Z" transform="translate(-390.469 -38.75)"/>
</svg>
