<svg xmlns="http://www.w3.org/2000/svg" width="16.22" height="13.469" viewBox="0 0 16.22 13.469">
  <defs>
    <style>
      .cls-1 {
        fill: #fff;
        fill-rule: evenodd;
      }
    </style>
  </defs>
  <path id="telegram" class="cls-1" d="M1435.19,73.721l3.74,1.329,1.45,4.433a0.44,0.44,0,0,0,.69.2l2.09-1.618a0.635,0.635,0,0,1,.75-0.02l3.76,2.6a0.445,0.445,0,0,0,.69-0.254l2.75-12.615a0.433,0.433,0,0,0-.59-0.477l-15.33,5.638A0.413,0.413,0,0,0,1435.19,73.721Zm4.95,0.622,7.31-4.286a0.122,0.122,0,0,1,.15.192l-6.03,5.339a1.193,1.193,0,0,0-.39.712l-0.2,1.45a0.192,0.192,0,0,1-.37.026l-0.79-2.644A0.686,0.686,0,0,1,1440.14,74.342Z" transform="translate(-1434.91 -67.281)"/>
</svg>
