<svg xmlns="http://www.w3.org/2000/svg" width="20.59" height="11.656" viewBox="0 0 20.59 11.656">
  <defs>
    <style>
      .cls-1 {
        fill: #fff;
        fill-rule: evenodd;
      }
    </style>
  </defs>
  <path id="vk" class="cls-1" d="M1414.83,78.187a9,9,0,0,0-2.04-2.325c-1.73-1.574-1.5-1.318.58-4.039,1.27-1.657,1.77-2.669,1.61-3.1a1.214,1.214,0,0,0-1.08-.3l-3.09.018a0.716,0.716,0,0,0-.4.07,0.868,0.868,0,0,0-.28.326,17.7,17.7,0,0,1-1.14,2.373c-1.38,2.3-1.93,2.422-2.16,2.279-0.52-.333-0.39-1.338-0.39-2.052,0-2.23.35-3.16-.67-3.4a5.377,5.377,0,0,0-1.44-.142,6.791,6.791,0,0,0-2.57.258c-0.36.169-.63,0.548-0.46,0.569a1.388,1.388,0,0,1,.91.452,2.879,2.879,0,0,1,.31,1.378s0.18,2.625-.43,2.951c-0.42.224-.99-0.233-2.22-2.321a18.671,18.671,0,0,1-1.1-2.252,0.861,0.861,0,0,0-.26-0.338,1.3,1.3,0,0,0-.47-0.188l-2.95.018a1.006,1.006,0,0,0-.6.2,0.635,0.635,0,0,0-.01.515s2.3,5.3,4.91,7.967a7.134,7.134,0,0,0,5.11,2.287h1.23a1.047,1.047,0,0,0,.56-0.242,0.84,0.84,0,0,0,.17-0.531s-0.03-1.623.74-1.862,1.73,1.569,2.76,2.263a1.95,1.95,0,0,0,1.36.41l2.75-.038S1415.51,79.3,1414.83,78.187Z" transform="translate(-1394.44 -67.875)"/>
</svg>
