<svg xmlns="http://www.w3.org/2000/svg" width="18" height="12" viewBox="0 0 18 12">
  <defs>
    <style>
      .cls-1 {
        fill: #fff;
        fill-rule: evenodd;
      }
    </style>
  </defs>
  <path id="youtube" class="cls-1" d="M1374.23,69.179a2.062,2.062,0,0,0-2.09-1.056c-1.08-.071-3.79-0.1-6.14-0.1s-5.06.029-6.14,0.1a2.094,2.094,0,0,0-2.1,1.057c-0.5.841-.76,2.29-0.76,4.841V74.03c0,2.54.26,4,.76,4.832a2.11,2.11,0,0,0,2.1,1.066c1.08,0.061,3.79.1,6.14,0.1s5.06-.036,6.14-0.1a2.11,2.11,0,0,0,2.1-1.066c0.5-.832.76-2.292,0.76-4.833V74.022C1375,71.47,1374.74,70.021,1374.23,69.179ZM1363.75,77.3V70.751l5.62,3.273Z" transform="translate(-1357 -68.031)"/>
</svg>
